<svg viewBox="0 0 32 32" xmlns="http://www.w3.org/2000/svg"><path d="m23.779297 3.9804688-19.7988282 19.7988282 4.2421874 4.244141 19.7988278-19.7988286zm-17.529297.0195312-.796875 1.453125-1.453125.796875 1.453125.796875.796875 1.453125.796875-1.453125 1.453125-.796875-1.453125-.796875zm7.5 0-.796875 1.453125-1.453125.796875 1.453125.796875.796875 1.453125.796875-1.453125 1.453125-.796875-1.453125-.796875zm10.027344 1.3945312 2.828125 2.828125-5.658203 5.6582028-2.828125-2.828125zm-14.527344 4.6054688-.796875 1.453125-1.453125.796875 1.453125.796875.796875 1.453125.796875-1.453125 1.453125-.796875-1.453125-.796875z" fill="#232629"/></svg>